<svg xmlns="http://www.w3.org/2000/svg" viewBox="0 0 426.89703 426.89703"><defs><style>.cls-1{fill:#1a1e33;}</style></defs><title>empty_bezel</title><g id="bezel"><path class="cls-1" d="M370.85826,69.28945l-.00024-.00037C291.24113-17.64579,156.22428-23.57816,69.28941,56.03872l-.00031.00031c-86.93488,79.61688-92.86725,214.63373-13.25037,301.56854l.00031.00037c79.61688,86.93481,214.63367,92.86719,301.56848,13.25037l.00037-.00031C444.54283,291.24111,450.4752,156.22427,370.85826,69.28945ZM200.57218,65.83358a17.7759,17.7759,0,0,1,34.05975.528l8.56854,33.67114,22.43579-22.03516a18.78169,18.78169,0,0,1,8.77777-4.91028A17.75342,17.75342,0,0,1,290.77476,103.068l-37.4433,36.78455,1.05811,4.15686,13.82654,54.33984a17.752,17.752,0,1,1-34.31323,9.11047L200.53575,76.40737c-.06073-.19812-.09882-.4007-.15228-.60181l-.26965-1.40125A17.58226,17.58226,0,0,1,200.57218,65.83358ZM99.187,290.146l-1.07867.93414a17.58286,17.58286,0,0,1-7.65167,3.88843A17.77591,17.77591,0,0,1,73.884,265.20791l24.87579-24.25616L68.459,232.53939a18.78189,18.78189,0,0,1-8.64136-5.14661,17.75342,17.75342,0,0,1,17.78375-29.15918l50.57794,14.03455,3.07092-2.99475,40.14636-39.1441a17.752,17.752,0,1,1,25.04651,25.16089l-96.8111,94.423C99.49082,289.86483,99.33439,289.99911,99.187,290.146Zm243.99286,10.75092a17.75262,17.75262,0,0,1-16.36151,4.10083l-33.44434-9.415,7.86511,30.44745a18.78261,18.78261,0,0,1-.13641,10.05695,17.75343,17.75343,0,0,1-34.14447-.82159l-13.13464-50.81909-4.129-1.162-53.973-15.1958a17.752,17.752,0,1,1,9.26672-34.27136l130.17822,36.62939c.202.04645.39642.11481.59729.16907l1.34839.467a17.58312,17.58312,0,0,1,7.1933,4.68237A17.78886,17.78886,0,0,1,343.17985,300.89688Z"/></g></svg>