<svg xmlns="http://www.w3.org/2000/svg" viewBox="0 0 426.89703 426.89703"><defs><style>.cls-1{fill:#1a1e33;}.cls-2{fill:#6868dd;}.cls-3{fill:#fe6672;}.cls-4{fill:#00bbde;}</style></defs><title>logo_color_bezel</title><g id="color_bezel"><path class="cls-1" d="M213.4483.00137h.00043A213.44692,213.44692,0,0,1,426.89565,213.4483v.00043A213.44693,213.44693,0,0,1,213.44872,426.89565h-.00043A213.44692,213.44692,0,0,1,.00137,213.44873v-.00043A213.44692,213.44692,0,0,1,213.4483.00137Z" transform="translate(-88.12231 200.19801) rotate(-42.48414)"/><path class="cls-2" d="M98.10832,291.08014,99.187,290.146c.14743-.14683.30387-.2811.445-.43279l96.81112-94.423a17.752,17.752,0,1,0-25.04652-25.1609l-40.1464,39.14406-3.07091,2.9948-50.578-14.03459A17.75344,17.75344,0,0,0,59.8176,227.39278a18.78221,18.78221,0,0,0,8.64134,5.14661l30.30086,8.41238L73.884,265.2079a17.73414,17.73414,0,0,0,24.22431,25.87224Z"/><path class="cls-3" d="M200.11379,74.40436l.2697,1.40122c.05345.2011.09151.40371.15229.6018l33.36711,131.05237a17.752,17.752,0,1,0,34.31323-9.11047l-13.82656-54.33983-1.05812-4.15688,37.4433-36.7845A17.75344,17.75344,0,0,0,274.414,73.0873a18.7822,18.7822,0,0,0-8.77777,4.91031l-22.43577,22.03513L234.632,66.36162a17.73414,17.73414,0,0,0-34.51817,8.04274Z"/><path class="cls-4" d="M337.1122,271.08273l-1.34835-.467c-.20088-.05426-.39537-.12261-.59732-.169L204.9883,233.81725a17.752,17.752,0,1,0-9.26672,34.27137l53.973,15.19577,4.129,1.16208,13.13466,50.8191a17.75344,17.75344,0,0,0,34.14447.82158,18.78221,18.78221,0,0,0,.13643-10.05693l-7.8651-30.44751,33.44431,9.415a17.73414,17.73414,0,0,0,10.29387-33.915Z"/></g></svg>