<svg xmlns="http://www.w3.org/2000/svg" viewBox="0 0 426.89703 426.89703"><defs><style>.cls-1{fill:#6868dd;}.cls-2{fill:#fe6672;}.cls-3{fill:#00bbde;}</style></defs><title>logo_color_padded</title><g id="color_padded"><path class="cls-1" d="M102.44368,308.83655l1.14209-.98913c.1561-.15547.32174-.29763.47121-.45824l102.50551-99.97687a18.7962,18.7962,0,1,0-26.51974-26.64085L137.535,222.218l-3.25154,3.171-53.55293-14.8601a18.79769,18.79769,0,0,0-18.82977,30.87432,19.887,19.887,0,0,0,9.14962,5.44934l32.08314,8.90719-26.339,25.68286a18.77726,18.77726,0,0,0,25.64917,27.394Z"/><path class="cls-2" d="M210.44906,79.416l.28556,1.48364c.05659.21292.09689.42745.16125.6372l35.32975,138.76081a18.7962,18.7962,0,1,0,36.33152-9.64635l-14.63983-57.53608-1.12036-4.40139,39.64569-38.94815A18.79769,18.79769,0,0,0,289.1196,78.02147a19.887,19.887,0,0,0-9.29407,5.19913L256.0701,106.55182l-9.07252-35.65164A18.77726,18.77726,0,0,0,210.44906,79.416Z"/><path class="cls-3" d="M355.50566,287.66289l-1.42765-.49452c-.21269-.05745-.41863-.12982-.63246-.179L215.61029,248.20548a18.7962,18.7962,0,1,0-9.81178,36.2872l57.14762,16.08958,4.37189,1.23044,13.90724,53.80825a18.79769,18.79769,0,0,0,36.15283.86991,19.887,19.887,0,0,0,.14445-10.64847L309.19483,313.604l35.41149,9.96878a18.77726,18.77726,0,0,0,10.89935-35.90985Z"/></g></svg>