<svg xmlns="http://www.w3.org/2000/svg" viewBox="0 0 426.89703 426.89703"><title>logo_black</title><g id="black"><path d="M63.13283,343.744l1.56-1.3511c.21323-.21236.43948-.40656.64365-.62594L205.35415,205.20335a25.6747,25.6747,0,1,0-36.2247-36.39013l-58.06361,56.61394-4.44144,4.33137L33.47364,209.46034A25.67674,25.67674,0,0,0,7.75307,251.63318,27.16465,27.16465,0,0,0,20.251,259.07672l43.824,12.1668L28.09729,306.32507A25.64883,25.64883,0,0,0,63.13283,343.744Z"/><path d="M210.663,30.3665l.39006,2.02659c.0773.29084.13235.58388.22026.87039l48.25875,189.54064a25.6747,25.6747,0,1,0,49.62713-13.17645l-19.99731-78.59153-1.53036-6.01209,54.15412-53.20131a25.67674,25.67674,0,0,0-23.66246-43.36109A27.16465,27.16465,0,0,0,305.428,35.5634L272.97918,67.43274,260.58654,18.7343A25.64883,25.64883,0,0,0,210.663,30.3665Z"/><path d="M408.8034,314.82181l-1.95011-.67549c-.29053-.07848-.57183-.17733-.8639-.24445L217.713,260.92487a25.6747,25.6747,0,1,0-13.40242,49.56658L282.3715,332.469l5.9718,1.68072,18.99663,73.4995a25.67674,25.67674,0,0,0,49.383,1.18825,27.16465,27.16465,0,0,0,.19732-14.5453L345.545,350.25607l48.3704,13.61688a25.64883,25.64883,0,0,0,14.888-49.05114Z"/></g></svg>